<svg width="34" height="25" viewBox="0 0 34 25" fill="none" xmlns="http://www.w3.org/2000/svg">
<path d="M23.8637 24.9989L23.8627 25L23.8637 24.9989ZM8.29663 24.349C8.5073 24.4448 8.73276 24.5369 8.97211 24.6259C8.73275 24.5369 8.50729 24.4448 8.29663 24.349ZM25.7044 24.348C25.4933 24.444 25.2678 24.5377 25.0279 24.627C25.2678 24.5377 25.4933 24.444 25.7044 24.348ZM34 9.23405V11.002L26.7752 14.5158V21.0984H26.7659V22.1805C26.7659 22.1972 26.7561 22.392 26.3415 22.729C25.9375 23.0573 25.2736 23.4098 24.3234 23.7298C22.5486 24.3273 20.1218 24.6957 17.5219 24.74L17 24.7443C14.2045 24.7434 11.5697 24.3671 9.67664 23.7298C8.72643 23.4098 8.06255 23.0573 7.65851 22.729C7.2439 22.392 7.23413 22.1972 7.23413 22.1805V21.0984H7.22479V14.5168L2.69153 12.3008V22.3137H0V9.23405L17 0L34 9.23405ZM7.44684 23.8957V23.8967V23.8957ZM26.5532 23.8967V23.8957V23.8967ZM6.49847 23.0682C6.62744 23.241 6.79353 23.4102 6.99548 23.5744V23.5755C6.79356 23.4114 6.62748 23.242 6.49847 23.0693V23.0682ZM27.5015 23.0693C27.3725 23.242 27.2064 23.4114 27.0045 23.5755V23.5744C27.2065 23.4102 27.3726 23.241 27.5015 23.0682V23.0693ZM17 12.5914C14.774 12.5914 12.7305 12.8709 11.4032 13.2551C11.0032 13.3709 10.7992 13.4691 10.6146 13.5594C10.583 13.5749 10.5575 13.5873 10.5316 13.5996L9.91632 13.8902V20.5003L11.2092 20.2086C12.903 19.8268 14.9194 19.6177 16.999 19.6168C19.0804 19.619 21.0974 19.8294 22.7898 20.2128L24.0837 20.5066V13.8902L23.4684 13.5996C23.4537 13.5926 23.4392 13.5852 23.4238 13.5774C23.4118 13.5714 23.3992 13.5651 23.3854 13.5584C23.2008 13.4681 22.997 13.3709 22.5968 13.2551C21.2695 12.8709 19.226 12.5914 17 12.5914ZM22.9205 14.5327L22.9247 14.5348C22.9089 14.5271 22.8928 14.5203 22.877 14.5126C22.8914 14.5196 22.9061 14.5257 22.9205 14.5327ZM18.5678 13.7222V13.7211V13.7222ZM4.18359 10.0256L8.03827 11.913L8.53943 11.5811C9.15647 11.1719 9.82808 10.9009 10.6582 10.6607C12.3731 10.1644 14.5416 9.89559 17 9.89559C19.4584 9.89559 21.6269 10.1644 23.3418 10.6607C24.1727 10.9012 24.8457 11.174 25.4647 11.5854L25.9648 11.9172L29.8289 10.0319L17 3.0678L4.18359 10.0256ZM15.1562 8.86418V8.86524V8.86418ZM18.8438 8.86524V8.86418V8.86524Z" fill="#4E9F3D"/>
</svg>
