<svg width="31" height="34" viewBox="0 0 31 34" fill="none" xmlns="http://www.w3.org/2000/svg">
<path d="M15.5 0C10.8373 0 7.04545 3.81225 7.04545 8.5C7.04545 10.0484 7.46748 11.4977 8.19034 12.75H11.8121C10.6285 11.7102 9.86364 10.2014 9.86364 8.5C9.86364 5.37483 12.3915 2.83333 15.5 2.83333C18.6085 2.83333 21.1364 5.37483 21.1364 8.5C21.1364 10.2014 20.3715 11.7102 19.1879 12.75H22.8097C23.5325 11.4977 23.9545 10.0484 23.9545 8.5C23.9545 3.81225 20.1627 0 15.5 0ZM2.81818 15.5833V31.1667H0V34H31V31.1667H28.1818V15.5833H2.81818ZM5.63636 18.4167H25.3636V31.1667H5.63636V18.4167ZM15.5 22.6667C15.1263 22.6667 14.7679 22.8159 14.5036 23.0816C14.2394 23.3473 14.0909 23.7076 14.0909 24.0833C14.0909 24.4591 14.2394 24.8194 14.5036 25.0851C14.7679 25.3507 15.1263 25.5 15.5 25.5C15.8737 25.5 16.2321 25.3507 16.4964 25.0851C16.7606 24.8194 16.9091 24.4591 16.9091 24.0833C16.9091 23.7076 16.7606 23.3473 16.4964 23.0816C16.2321 22.8159 15.8737 22.6667 15.5 22.6667Z" fill="#4E9F3D"/>
</svg>
