<svg width="33" height="33" viewBox="0 0 33 33" fill="none" xmlns="http://www.w3.org/2000/svg">
<path d="M5 0C2.25098 0 0 2.25098 0 5C0 7.74902 2.25098 10 5 10C5.88379 10 6.69922 9.74609 7.42188 9.33594L10.1562 12.3828C9.29199 13.457 8.75 14.7803 8.75 16.25C8.75 17.6123 9.20899 18.8525 9.96094 19.8828L7.77344 22.1094C7.76367 22.1045 7.74414 22.1143 7.73438 22.1094C6.94336 21.582 6.01562 21.25 5 21.25C2.25098 21.25 0 23.501 0 26.25C0 28.999 2.25098 31.25 5 31.25C7.74902 31.25 10 28.999 10 26.25C10 25.4297 9.77051 24.668 9.41406 23.9844L11.7969 21.6016C12.7393 22.1729 13.8281 22.5 15 22.5C15.8887 22.5 16.7334 22.2949 17.5 21.9531L18.9453 24.0234C18.0615 24.9268 17.5 26.1475 17.5 27.5C17.5 30.249 19.751 32.5 22.5 32.5C25.249 32.5 27.5 30.249 27.5 27.5C27.5 24.751 25.249 22.5 22.5 22.5C22.0117 22.5 21.5381 22.6025 21.0938 22.7344L19.5312 20.5078C20.3125 19.6777 20.8936 18.6523 21.1328 17.5H22.6953C23.252 19.6484 25.1855 21.25 27.5 21.25C30.249 21.25 32.5 18.999 32.5 16.25C32.5 13.501 30.249 11.25 27.5 11.25C25.1855 11.25 23.252 12.8516 22.6953 15H21.1328C20.835 13.5645 20.0098 12.3047 18.9062 11.4062L19.4531 9.92188C19.6338 9.94141 19.8145 10 20 10C22.749 10 25 7.74902 25 5C25 2.25098 22.749 0 20 0C17.251 0 15 2.25098 15 5C15 6.66016 15.8545 8.11035 17.1094 9.02344L16.6406 10.2344C16.1133 10.0879 15.5713 10 15 10C13.9355 10 12.9541 10.3027 12.0703 10.7812L9.21875 7.65625C9.71191 6.88477 10 5.97656 10 5C10 2.25098 7.74902 0 5 0ZM5 2.5C6.39648 2.5 7.5 3.60352 7.5 5C7.5 5.69824 7.20703 6.30859 6.75781 6.75781C6.30859 7.20703 5.69824 7.5 5 7.5C3.60352 7.5 2.5 6.39648 2.5 5C2.5 3.60352 3.60352 2.5 5 2.5ZM20 2.5C21.3965 2.5 22.5 3.60352 22.5 5C22.5 6.39648 21.3965 7.5 20 7.5C18.6035 7.5 17.5 6.39648 17.5 5C17.5 3.60352 18.6035 2.5 20 2.5ZM15 12.5C17.0703 12.5 18.75 14.1797 18.75 16.25C18.7451 16.3037 18.7451 16.3525 18.75 16.4062C18.667 18.3984 17.0166 20 15 20C14.0625 20 13.1982 19.668 12.5391 19.1016C11.7432 18.4131 11.25 17.3828 11.25 16.25C11.25 14.1797 12.9297 12.5 15 12.5ZM27.5 13.75C28.8965 13.75 30 14.8535 30 16.25C30 17.6465 28.8965 18.75 27.5 18.75C26.1035 18.75 25 17.6465 25 16.25C25 14.8535 26.1035 13.75 27.5 13.75ZM5 23.75C6.39648 23.75 7.5 24.8535 7.5 26.25C7.5 27.6465 6.39648 28.75 5 28.75C3.60352 28.75 2.5 27.6465 2.5 26.25C2.5 24.8535 3.60352 23.75 5 23.75ZM22.5 25C23.8965 25 25 26.1035 25 27.5C25 28.8965 23.8965 30 22.5 30C21.1035 30 20 28.8965 20 27.5C20 26.6699 20.4053 25.9619 21.0156 25.5078C21.2061 25.4443 21.3818 25.3369 21.5234 25.1953C21.5381 25.1904 21.5479 25.1611 21.5625 25.1562C21.8506 25.0439 22.168 25 22.5 25Z" fill="#4E9F3D"/>
</svg>
