<svg width="35" height="26" viewBox="0 0 35 26" fill="none" xmlns="http://www.w3.org/2000/svg">
<path d="M17.5 0L17.0703 0.15625L0.820312 6.28906L0 6.60156V8.55469L0.820312 8.86719L17.0703 15L17.5 15.1562L17.9297 15L34.1797 8.86719L35 8.55469V6.60156L34.1797 6.28906L17.9297 0.15625L17.5 0ZM17.5 2.65625L30.5078 7.57812L17.5 12.5L4.49219 7.57812L17.5 2.65625ZM0 9.96094V13.5547L17.5 20.1562L35 13.5547V9.96094L32.5 10.8984V11.8359L17.5 17.5L2.5 11.8359V10.8984L0 9.96094ZM0 14.9609V18.5547L17.5 25.1562L35 18.5547V14.9609L32.5 15.8984V16.8359L17.5 22.5L2.5 16.8359V15.8984L0 14.9609Z" fill="#4E9F3D"/>
</svg>
