<svg width="45" height="23" viewBox="0 0 45 23" fill="none" xmlns="http://www.w3.org/2000/svg">
<path d="M22.5 0C18.375 0 15 3.375 15 7.5C15 9.77344 16.0605 11.7949 17.6719 13.1719C16.0723 14.0098 14.6719 15.2754 13.6875 16.7812C13.1543 16.0078 12.4512 15.293 11.6719 14.7656C12.7852 13.6758 13.5 12.1699 13.5 10.5C13.5 7.20117 10.7988 4.5 7.5 4.5C4.20117 4.5 1.5 7.20117 1.5 10.5C1.5 12.1699 2.21484 13.6758 3.32812 14.7656C1.33008 16.1191 0 18.4277 0 21H3C3 18.5156 5.01562 16.5 7.5 16.5C9.98438 16.5 12 18.5156 12 21V22.5H15C15 18.3691 18.3691 15 22.5 15C26.6309 15 30 18.3691 30 22.5H33V21C33 18.5156 35.0156 16.5 37.5 16.5C39.9844 16.5 42 18.5156 42 21H45C45 18.4277 43.6699 16.1191 41.6719 14.7656C42.7852 13.6758 43.5 12.1699 43.5 10.5C43.5 7.20117 40.7988 4.5 37.5 4.5C34.2012 4.5 31.5 7.20117 31.5 10.5C31.5 12.1699 32.2148 13.6758 33.3281 14.7656C32.5488 15.293 31.8457 16.0078 31.3125 16.7812C30.3281 15.2754 28.9277 14.0098 27.3281 13.1719C28.9395 11.7949 30 9.77344 30 7.5C30 3.375 26.625 0 22.5 0ZM22.5 3C25.002 3 27 4.99805 27 7.5C27 10.002 25.002 12 22.5 12C19.998 12 18 10.002 18 7.5C18 4.99805 19.998 3 22.5 3ZM7.5 7.5C9.17578 7.5 10.5 8.82422 10.5 10.5C10.5 12.1758 9.17578 13.5 7.5 13.5C5.82422 13.5 4.5 12.1758 4.5 10.5C4.5 8.82422 5.82422 7.5 7.5 7.5ZM37.5 7.5C39.1758 7.5 40.5 8.82422 40.5 10.5C40.5 12.1758 39.1758 13.5 37.5 13.5C35.8242 13.5 34.5 12.1758 34.5 10.5C34.5 8.82422 35.8242 7.5 37.5 7.5Z" fill="#21962F" fill-opacity="0.75"/>
</svg>
