<svg width="42" height="32" viewBox="0 0 42 32" fill="none" xmlns="http://www.w3.org/2000/svg">
<path d="M22.5 0V15H25.5V19.3125L27.8438 17.7656L31.9688 15H42V0H22.5ZM25.5 3H39V12H31.0312L30.6562 12.2344L28.5 13.6875V12H25.5V3ZM12 4.5C7.04883 4.5 3 8.54883 3 13.5C3 16.4766 4.46484 19.125 6.70312 20.7656C2.74805 22.7285 0 26.7949 0 31.5H3C3 26.5137 7.01367 22.5 12 22.5C16.9863 22.5 21 26.5137 21 31.5H24C24 26.7949 21.252 22.7285 17.2969 20.7656C19.5352 19.125 21 16.4766 21 13.5C21 8.54883 16.9512 4.5 12 4.5ZM12 7.5C15.334 7.5 18 10.166 18 13.5C18 16.834 15.334 19.5 12 19.5C8.66602 19.5 6 16.834 6 13.5C6 10.166 8.66602 7.5 12 7.5Z" fill="#21962F" fill-opacity="0.75"/>
</svg>
