<svg width="35" height="38" viewBox="0 0 35 38" fill="none" xmlns="http://www.w3.org/2000/svg">
<path d="M12 0V3H21V0H12ZM29.5781 3.42188L27.4219 5.57812L28.5938 6.75L27.0469 8.34375C24.1875 5.95898 20.502 4.5 16.5 4.5C7.40625 4.5 0 11.9062 0 21C0 30.0938 7.40625 37.5 16.5 37.5C25.5938 37.5 33 30.0938 33 21C33 16.998 31.541 13.3125 29.1562 10.4531L30.75 8.90625L31.9219 10.0781L34.0781 7.92188L29.5781 3.42188ZM16.5 7.5C23.9707 7.5 30 13.5293 30 21C30 28.4707 23.9707 34.5 16.5 34.5C9.0293 34.5 3 28.4707 3 21C3 13.5293 9.0293 7.5 16.5 7.5ZM10.0781 12.4219L7.92188 14.5781L13.5938 20.25C13.5293 20.4902 13.5 20.7422 13.5 21C13.5 22.6582 14.8418 24 16.5 24C18.1582 24 19.5 22.6582 19.5 21C19.5 19.3418 18.1582 18 16.5 18C16.2422 18 15.9902 18.0293 15.75 18.0938L10.0781 12.4219Z" fill="#21962F" fill-opacity="0.75"/>
</svg>
