<svg width="90" height="90" viewBox="0 0 90 90" fill="none" xmlns="http://www.w3.org/2000/svg">
<path d="M33.75 0C26.6139 0 20.8738 5.16934 19.3872 11.8799C10.6027 13.424 3.75 20.7913 3.75 30C3.75 30.9439 3.93124 31.7705 4.06494 32.6294C1.66109 36.178 0 40.342 0 45C0 51.7334 3.34589 57.4337 8.06396 61.5454C7.73411 62.86 7.5 64.2119 7.5 65.625C7.5 74.9004 15.0996 82.5 24.375 82.5C24.4758 82.5 24.5266 82.4807 24.624 82.478C26.8097 86.6995 30.5775 90 35.625 90C42.8295 90 48.75 84.0795 48.75 76.875V63.75H56.25V78.75H71.25V71.25H63.75V56.25H48.75V48.75H71.25V41.25H48.75V33.75H63.75V18.75H71.25V11.25H56.25V26.25H48.75V22.5V15C48.75 6.76 41.99 0 33.75 0ZM33.75 7.5C37.9375 7.5 41.25 10.8125 41.25 15V22.5C41.25 28.7568 36.2568 33.75 30 33.75V41.25C34.2298 41.25 38.1035 39.7772 41.25 37.3901V76.875C41.25 80.028 38.778 82.5 35.625 82.5C32.8258 82.5 30.5827 80.5085 30.1099 77.8784L29.458 74.2749L25.8398 74.8389C25.1821 74.9418 24.7153 75 24.375 75C19.1529 75 15 70.8471 15 65.625C15 64.378 15.2481 63.199 15.7031 62.0874C16.871 59.2154 19.4035 57.0682 22.5 56.4404L21.0059 49.0869C17.1247 49.8738 13.7313 52.0011 11.3159 54.9536C8.94745 52.3126 7.5 48.8482 7.5 45C7.5 41.4775 8.75624 38.3066 10.8398 35.6982L11.9678 34.2847L11.5649 32.5195C11.364 31.6429 11.25 30.8109 11.25 30C11.25 23.7432 16.2432 18.75 22.5 18.75H26.25V15C26.25 10.8125 29.5625 7.5 33.75 7.5ZM82.5 7.5C78.3562 7.5 75 10.8562 75 15C75 19.1437 78.3562 22.5 82.5 22.5C86.6438 22.5 90 19.1437 90 15C90 10.8562 86.6438 7.5 82.5 7.5ZM82.5 37.5C78.3562 37.5 75 40.8563 75 45C75 49.1437 78.3562 52.5 82.5 52.5C86.6438 52.5 90 49.1437 90 45C90 40.8563 86.6438 37.5 82.5 37.5ZM82.5 67.5C78.3562 67.5 75 70.8562 75 75C75 79.1438 78.3562 82.5 82.5 82.5C86.6438 82.5 90 79.1438 90 75C90 70.8562 86.6438 67.5 82.5 67.5Z" fill="#21962F"/>
</svg>
