<svg width="80" height="80" viewBox="0 0 80 80" fill="none" xmlns="http://www.w3.org/2000/svg">
<g clip-path="url(#clip0_134_31667)">
<path d="M6.92383 32.3024L13.3704 25.8792L26.6591 39.1912C26.6591 39.1912 32.3027 44.5555 38.982 38.5744C39.11 38.2603 39.11 38.2603 39.11 38.2603L26.3798 25.7279L39.3893 12.8464L52.5384 25.7512L39.622 38.749C39.622 38.749 27.3922 50.9788 13.8707 39.2493C9.73983 35.1184 6.92383 32.3024 6.92383 32.3024Z" fill="#008000" stroke="#008000" stroke-width="0.174545"/>
<path d="M73.9842 47.6625L67.526 54.0858L54.2489 40.7738C54.2489 40.7738 48.6053 35.4094 41.926 41.3905C41.798 41.7047 41.798 41.7047 41.798 41.7047L54.5165 54.2371L41.5187 67.1185L28.3696 54.2138L41.2744 41.216C41.2744 41.216 53.5042 28.9862 67.0256 40.7156C71.1565 44.8465 73.9842 47.6625 73.9842 47.6625Z" fill="#008000" stroke="#008000" stroke-width="0.174545"/>
<path d="M32.9307 6.42327L39.3888 0L45.8354 6.42327L39.3888 12.9047L32.9307 6.42327Z" fill="#008000" stroke="#008000" stroke-width="0.174545"/>
<path d="M35.0718 73.5186L41.5183 67.0837L47.9649 73.5186L41.5183 80.0001L35.0718 73.5186Z" fill="#008000" stroke="#008000" stroke-width="0.174545"/>
</g>
<defs>
<clipPath id="clip0_134_31667">
<rect width="80" height="80" fill="white"/>
</clipPath>
</defs>
</svg>
