<svg width="80" height="80" viewBox="0 0 80 80" fill="none" xmlns="http://www.w3.org/2000/svg">
<path d="M29.9365 13.5022L41.5564 2.31665L53.0497 13.8099V26H47.2578L47.1854 15.0044L41.8098 9.66506L35.9637 15.113L35.8008 54.2261L39.4026 57.9546L35.113 62.1718L29.9365 56.6153V13.5022Z" fill="#008000"/>
<path d="M37.0859 27.1675H63.5837L78.9683 42.8236L67.5837 58.8236L67.457 78.0996H51.5113L41.7737 68.4888L45.8099 64.3259L53.9728 72.2354L56.3801 72.1992L62.0452 72.1087V56.1992L71.6742 43.3123L61.6289 32.9955L37.0859 32.7964V27.1675Z" fill="#008000"/>
<path d="M28.706 27.0046L16.4164 27.0408L0.760254 42.5159L12.9956 58.8236L13.0318 78.0634H30.1177L53.3214 54.5159V33.9972H47.4752L47.3485 52.0544L27.2942 72.1087L18.4435 72.0906L18.3892 56.0001L9.08605 43.1675L19.3666 32.8689L28.706 32.8508V27.0046Z" fill="#008000"/>
</svg>
