<svg width="39" height="39" viewBox="0 0 39 39" fill="none" xmlns="http://www.w3.org/2000/svg">
<path d="M17.9998 0C30.3418 0 33.4016 10.1167 33.8201 11.7832L37.828 19.8076C38.2885 20.8786 38.2996 22.0004 37.8631 22.8809C37.4851 23.6444 36.7942 24.1846 36.0262 24.3721C35.6002 24.5131 35.0113 24.6894 34.4998 24.8379V27C34.4998 30.855 30.8548 34.5 26.9998 34.5V39H23.9998V31.5H26.9998C29.1868 31.5 31.4998 29.187 31.4998 27V22.5527L32.6043 22.2539C32.6118 22.2524 34.2062 21.8147 35.1737 21.5537C35.1872 21.5162 35.2068 21.3118 35.1063 21.0703L31.0574 12.9697L30.9285 12.5859C30.852 12.1944 28.9378 3 17.9998 3C15.9193 3 13.9557 3.48708 12.1932 4.33008L9.96369 2.10059C12.3442 0.767086 15.0823 0 17.9998 0ZM4.49982 0C4.95938 0.000620735 5.41265 0.106812 5.82466 0.310379C6.23667 0.513946 6.59641 0.809447 6.87611 1.17408C7.15582 1.53872 7.34801 1.96274 7.43787 2.41342C7.52772 2.86411 7.51283 3.32942 7.39435 3.77344L11.1209 7.5H19.4998V10.5H9.87873L5.27326 5.89453C5.02114 5.96322 4.76113 5.99868 4.49982 6C3.70417 6 2.94111 5.68393 2.3785 5.12132C1.81589 4.55871 1.49982 3.79565 1.49982 3C1.49982 2.20435 1.81589 1.44129 2.3785 0.87868C2.94111 0.31607 3.70417 0 4.49982 0ZM2.99982 12C3.52553 12.0009 4.04177 12.14 4.49681 12.4032C4.95186 12.6665 5.32974 13.0447 5.59259 13.5H19.4998V16.5H5.59845C5.3351 16.9561 4.9563 17.3349 4.50014 17.5982C4.04397 17.8615 3.52652 18.0001 2.99982 18C2.20417 18 1.44111 17.6839 0.878502 17.1213C0.315891 16.5587 -0.000179291 15.7956 -0.000179291 15C-0.000179291 14.2044 0.315891 13.4413 0.878502 12.8787C1.44111 12.3161 2.20417 12 2.99982 12ZM19.4998 19.5V22.5H11.1209L7.39728 26.2236C7.51636 26.6681 7.5316 27.134 7.44184 27.5853C7.35208 28.0365 7.15971 28.4611 6.87962 28.8262C6.59953 29.1912 6.23921 29.487 5.82655 29.6905C5.41389 29.8941 4.95995 29.9999 4.49982 30C3.70417 30 2.94111 29.6839 2.3785 29.1213C1.81589 28.5587 1.49982 27.7956 1.49982 27C1.49982 26.2044 1.81589 25.4413 2.3785 24.8787C2.94111 24.3161 3.70417 24 4.49982 24C4.76113 24.0013 5.02114 24.0368 5.27326 24.1055L9.87873 19.5H19.4998ZM8.9676 30.9727C8.98109 31.1977 8.99982 31.4199 8.99982 31.6494V39H5.99982V32.7891C7.16682 32.4861 8.18909 31.8457 8.9676 30.9727Z" fill="#CDCDCD" fill-opacity="0.5"/>
</svg>
