<svg width="45" height="39" viewBox="0 0 45 39" fill="none" xmlns="http://www.w3.org/2000/svg">
<path d="M4.5 0V20.3789L1.06055 23.8184C0.376547 24.5024 0 25.4114 0 26.3789C0 28.3754 1.62459 30 3.62109 30H16.5L19.5 27H3.62109C3.27909 27 3 26.7209 3 26.3789C3 26.2154 3.06614 26.055 3.18164 25.9395L6.62109 22.5H24L25.5 21C25.428 20.799 25.4326 20.2005 25.4971 19.5H7.5V3H34.5V9.99609C35.2905 9.84159 36.288 9.82638 37.5 10.0049V0H4.5ZM36.8057 11.9268C34.554 11.8689 32.2836 12.6988 30.5742 14.4082C28.7504 16.2304 28.1044 18.6933 28.292 21.0879L19.5791 29.8008C18.5686 30.8113 18 32.1844 18 33.6123C18 35.0411 18.5693 36.4111 19.5791 37.4209C20.5896 38.4314 21.9598 39 23.3877 39C24.8156 39 26.1873 38.432 27.1963 37.4209L35.9092 28.708C38.3031 28.8957 40.7655 28.2491 42.5889 26.4258C45.194 23.8207 45.7585 19.9178 44.25 16.7549C44.1464 16.5385 43.9925 16.3501 43.801 16.2055C43.6096 16.0608 43.3863 15.9643 43.1498 15.9238C42.9134 15.8833 42.6706 15.9002 42.442 15.9729C42.2134 16.0456 42.0055 16.1721 41.8359 16.3418L38.2646 19.9131C37.9304 20.2473 37.4328 20.2473 37.0986 19.9131C37.1034 19.9182 37.0809 19.8954 37.0869 19.9014C36.7527 19.5672 36.7527 19.0696 37.0869 18.7354L40.6582 15.1641C40.8279 14.9944 40.9544 14.7866 41.0271 14.558C41.0998 14.3294 41.1167 14.0866 41.0762 13.8502C41.0357 13.6137 40.9391 13.3904 40.7945 13.1989C40.6499 13.0075 40.4615 12.8536 40.2451 12.75C39.4544 12.3724 38.618 12.1246 37.7666 12.0059C37.4473 11.9613 37.1273 11.935 36.8057 11.9268ZM35.6982 14.9912C35.9608 14.9487 36.2123 15.1068 36.4775 15.1025L34.9658 16.6143C33.5522 18.0279 33.5045 20.3123 34.79 21.8057C34.8403 21.8799 34.8972 21.9496 34.9599 22.0137L34.9658 22.0195V22.0225C34.9697 22.0264 34.9736 22.0303 34.9775 22.0342C36.4583 23.515 38.9049 23.515 40.3857 22.0342L41.8974 20.5225C41.8756 21.8968 41.5218 23.2507 40.4678 24.3047C39.1136 25.6588 37.2488 26.152 35.5078 25.8076C35.2656 25.7598 35.0154 25.7725 34.7793 25.8445C34.5432 25.9166 34.3285 26.0458 34.1543 26.2207L25.0752 35.2998L25.0723 35.3027C24.6264 35.7495 24.0208 36 23.3877 36C22.7546 36 22.1477 35.7473 21.7002 35.2998C21.252 34.8516 21 34.2475 21 33.6123C21 32.9792 21.2527 32.3693 21.7002 31.9219L30.7793 22.8428C30.9542 22.6686 31.0834 22.4539 31.1555 22.2178C31.2275 21.9817 31.2402 21.7314 31.1924 21.4893C30.8481 19.7489 31.3414 17.882 32.6953 16.5293C33.5454 15.6792 34.6015 15.1688 35.6982 14.9912Z" fill="#CDCDCD" fill-opacity="0.5"/>
</svg>
