<svg xmlns="http://www.w3.org/2000/svg" viewBox="0 0 248 108">
<defs>
<style>.cls-1,.cls-2{fill:#008000;}.cls-1{fill-rule:evenodd;}</style>
</defs>
<title>Asset 1</title>
<g id="Layer_2" data-name="Layer 2">
<g id="Layer_1-2" data-name="Layer 1">
<path class="cls-1" d="M102.44,92.31h35.62a3.86,3.86,0,0,1,0,7.71H102.44a3.86,3.86,0,0,1,0-7.71M98.23,22.22h20.94a2.48,2.48,0,0,1,2.21-1.87h23.44c1.33,0,2.42,1.4,2.42,3.12s-1.09,3.12-2.42,3.12H121.38a2.6,2.6,0,0,1-2.31-2.21H98.31c-.27,1.28-1.08,2.21-2,2.21H75.6c-1.17,0-2.13-1.41-2.13-3.12s1-3.12,2.13-3.12H96.27C97.15,20.35,97.9,21.12,98.23,22.22Zm28.7,61.49h20.84c.3-1.19,1.09-2,2-2h20.67c1.18,0,2.14,1.41,2.14,3.13s-1,3.12-2.14,3.12H149.77c-.91,0-1.7-.86-2-2H126.93a2.55,2.55,0,0,1-2.27,2H101.22c-1.33,0-2.42-1.41-2.42-3.12s1.09-3.13,2.42-3.13h23.44A2.55,2.55,0,0,1,126.93,83.71Zm-99-12.12h77.24c.21-1.11.69-1.9,1.24-1.9h13.08c.55,0,1,.79,1.24,1.9h51.85c.27-1.19,1-2,1.8-2h18.57c1.05,0,1.91,1.4,1.91,3.12s-.86,3.12-1.91,3.12H174.34c-.82,0-1.53-.85-1.8-2h-51.8c-.18,1.26-.69,2.19-1.29,2.19H106.37c-.6,0-1.11-.93-1.29-2.19H27.72c-.32,1-1,1.67-1.7,1.67H10.47A45.64,45.64,0,0,1,6,70.31a1.78,1.78,0,0,1,1.47-1.13H26C26.93,69.18,27.69,70.21,27.89,71.59ZM40.3,59.1h73.6c.15-1.1.47-1.88.85-1.88h9c.38,0,.7.78.84,1.88H190.9c.27-1.18,1-2,1.79-2h18.57c1.05,0,1.92,1.41,1.92,3.12s-.87,3.12-1.92,3.12H192.69c-.82,0-1.52-.85-1.79-2H124.61c-.12,1.27-.47,2.2-.88,2.2h-9c-.41,0-.76-.93-.88-2.2H40.3c-.27,1.19-1,2-1.79,2H19.94c-1.05,0-1.92-1.4-1.92-3.12s.87-3.12,1.92-3.12H38.51C39.33,57.06,40,57.92,40.3,59.1ZM55,46.8h66.91c.11-1.29.47-2.24.88-2.24h9c.42,0,.77.95.89,2.24h73.08c.27-1.19,1-2,1.79-2h18.57c1.06,0,1.92,1.41,1.92,3.12S227.19,51,226.13,51H207.56c-.82,0-1.52-.85-1.79-2H132.64c-.15,1.09-.47,1.84-.84,1.84h-9c-.37,0-.69-.75-.84-1.84h-67c-.29,1.1-1,1.86-1.74,1.86H34.62c-1,0-1.91-1.4-1.91-3.12s.86-3.12,1.91-3.12H53.2C54.06,44.58,54.79,45.52,55,46.8ZM238.38,35.13c.1.13.21.25.31.37Zm-1.11-1.25.39.43ZM123,.15c51.15,0,95,13.61,113.55,33l-.28-.29H219.35a2.48,2.48,0,0,0-2.17,2H141.49c-.14-1.38-.67-2.42-1.31-2.42H127.1c-.64,0-1.17,1-1.31,2.42H73.42c-.2-1.38-1-2.41-1.87-2.41H53c-1,0-1.91,1.41-1.91,3.12S51.93,38.7,53,38.7H71.55c.74,0,1.38-.68,1.7-1.67h52.66c.23,1,.68,1.66,1.19,1.66h13.08c.52,0,1-.67,1.19-1.66h75.81a2.48,2.48,0,0,0,2.17,2h22l-.06-.1A26.72,26.72,0,0,1,246,53.76c0,29.61-55.07,53.61-123,53.61S0,83.37,0,53.76,55.07.15,123,.15Zm-14.32,7H144.3A3.77,3.77,0,0,1,148,11a3.78,3.78,0,0,1-3.67,3.86H108.69A3.79,3.79,0,0,1,105,11,3.78,3.78,0,0,1,108.69,7.13Z"/>
</g>
</g>
</svg>